{"asset":{"version":"2.0","generator":"babylon.js glTF exporter for 3dsmax 2022 v20230608.5"},"scene":0,"scenes":[{"nodes":[0,1]}],"nodes":[{"mesh":0,"name":"Box002"},{"mesh":1,"name":"Box004"}],"meshes":[{"primitives":[{"attributes":{"POSITION":1,"TANGENT":2,"NORMAL":3,"TEXCOORD_0":4},"indices":0,"material":0}],"name":"Box002"},{"primitives":[{"attributes":{"POSITION":6,"TANGENT":7,"NORMAL":8,"TEXCOORD_0":9},"indices":5,"material":1}],"name":"Box004"}],"accessors":[{"bufferView":0,"componentType":5123,"count":4944,"type":"SCALAR","name":"accessorIndices"},{"bufferView":1,"componentType":5126,"count":974,"max":[0.2489791,0.5439705,0.377694],"min":[-0.2877581,-0.0003207,-0.2779273],"type":"VEC3","name":"accessorPositions"},{"bufferView":2,"componentType":5126,"count":974,"type":"VEC4","name":"accessorTangents"},{"bufferView":1,"byteOffset":11688,"componentType":5126,"count":974,"type":"VEC3","name":"accessorNormals"},{"bufferView":3,"componentType":5126,"count":974,"type":"VEC2","name":"accessorUVs"},{"bufferView":0,"byteOffset":9888,"componentType":5123,"count":53256,"type":"SCALAR","name":"accessorIndices"},{"bufferView":1,"byteOffset":23376,"componentType":5126,"count":9432,"max":[0.258848518,0.6532308,0.493119538],"min":[-0.2956956,-0.0057723,-0.403787524],"type":"VEC3","name":"accessorPositions"},{"bufferView":2,"byteOffset":15584,"componentType":5126,"count":9432,"type":"VEC4","name":"accessorTangents"},{"bufferView":1,"byteOffset":136560,"componentType":5126,"count":9432,"type":"VEC3","name":"accessorNormals"},{"bufferView":3,"byteOffset":7792,"componentType":5126,"count":9432,"type":"VEC2","name":"accessorUVs"}],"bufferViews":[{"buffer":0,"byteLength":116400,"name":"bufferViewScalar"},{"buffer":0,"byteOffset":116400,"byteLength":249744,"byteStride":12,"name":"bufferViewFloatVec3"},{"buffer":0,"byteOffset":366144,"byteLength":166496,"byteStride":16,"name":"bufferViewFloatVec4"},{"buffer":0,"byteOffset":532640,"byteLength":83248,"byteStride":8,"name":"bufferViewFloatVec2"}],"buffers":[{"uri":"armchair.bin","byteLength":615888}],"materials":[{"pbrMetallicRoughness":{"baseColorFactor":[0.1216,0.1216,0.1216,1.0],"metallicFactor":0.29,"roughnessFactor":0.87},"doubleSided":true,"name":"WOOD","extras":{"babylonSeparateCullingPass":false}},{"pbrMetallicRoughness":{"baseColorFactor":[0.0588,0.0588,0.0588,1.0],"metallicFactor":0.29,"roughnessFactor":0.87},"doubleSided":true,"name":"BODY","extras":{"babylonSeparateCullingPass":false}}]}