{"asset":{"version":"2.0","generator":"babylon.js glTF exporter for 3dsmax 2022 v20230608.5"},"scene":0,"scenes":[{"nodes":[0]}],"nodes":[{"mesh":0,"name":"Benedict_cushion_MD"}],"meshes":[{"primitives":[{"attributes":{"POSITION":1,"NORMAL":2,"TEXCOORD_0":3},"indices":0,"material":0}],"name":"Benedict_cushion_MD"}],"accessors":[{"bufferView":0,"componentType":5125,"count":373632,"type":"SCALAR","name":"accessorIndices"},{"bufferView":1,"componentType":5126,"count":88378,"max":[0.174298629,0.0977447,0.0891514346],"min":[-0.180064365,0.0209187716,-0.0845582038],"type":"VEC3","name":"accessorPositions"},{"bufferView":1,"byteOffset":1060536,"componentType":5126,"count":88378,"type":"VEC3","name":"accessorNormals"},{"bufferView":2,"componentType":5126,"count":88378,"type":"VEC2","name":"accessorUVs"}],"bufferViews":[{"buffer":0,"byteLength":1494528,"name":"bufferViewScalar"},{"buffer":0,"byteOffset":1494528,"byteLength":2121072,"byteStride":12,"name":"bufferViewFloatVec3"},{"buffer":0,"byteOffset":3615600,"byteLength":707024,"byteStride":8,"name":"bufferViewFloatVec2"}],"buffers":[{"uri":"benedict.bin","byteLength":4322624}],"materials":[{"pbrMetallicRoughness":{"baseColorFactor":[0.078431,0.078431,0.078431,1.0],"metallicFactor":0.0,"roughnessFactor":0.9},"doubleSided":true,"name":"benedict_obj_CUSHION","extras":{"babylonSeparateCullingPass":false}}]}