{"asset":{"version":"2.0","generator":"babylon.js glTF exporter for 3dsmax 2022 v20230608.5"},"scene":0,"scenes":[{"nodes":[0,1,2,3]}],"nodes":[{"mesh":0,"name":"RenderStuf"},{"mesh":1,"name":"Box004"},{"mesh":2,"name":"Benedict_cushion_MD"},{"mesh":3,"name":"Object010"}],"meshes":[{"primitives":[{"attributes":{"POSITION":1,"TANGENT":2,"NORMAL":3,"TEXCOORD_0":4},"indices":0,"material":0}],"name":"RenderStuf"},{"primitives":[{"attributes":{"POSITION":6,"TANGENT":7,"NORMAL":8,"TEXCOORD_0":9},"indices":5,"material":1}],"name":"Box004"},{"primitives":[{"attributes":{"POSITION":11,"TANGENT":12,"NORMAL":13,"TEXCOORD_0":14},"indices":10,"material":2}],"name":"Benedict_cushion_MD"},{"primitives":[{"attributes":{"POSITION":16,"TANGENT":17,"NORMAL":18,"TEXCOORD_0":19},"indices":15,"material":3}],"name":"Object010"}],"accessors":[{"bufferView":0,"componentType":5123,"count":21444,"type":"SCALAR","name":"accessorIndices"},{"bufferView":1,"componentType":5126,"count":5257,"max":[0.2140096,0.0691039339,0.00349366828],"min":[0.007823323,0.0224067084,-0.08601393],"type":"VEC3","name":"accessorPositions"},{"bufferView":2,"componentType":5126,"count":5257,"type":"VEC4","name":"accessorTangents"},{"bufferView":1,"byteOffset":63084,"componentType":5126,"count":5257,"type":"VEC3","name":"accessorNormals"},{"bufferView":3,"componentType":5126,"count":5257,"type":"VEC2","name":"accessorUVs"},{"bufferView":0,"byteOffset":42888,"componentType":5123,"count":31104,"type":"SCALAR","name":"accessorIndices"},{"bufferView":1,"byteOffset":126168,"componentType":5126,"count":6657,"max":[0.208932579,0.0132095767,0.0836112],"min":[-0.173601374,-5.5653E-05,-0.0768106356],"type":"VEC3","name":"accessorPositions"},{"bufferView":2,"byteOffset":84112,"componentType":5126,"count":6657,"type":"VEC4","name":"accessorTangents"},{"bufferView":1,"byteOffset":206052,"componentType":5126,"count":6657,"type":"VEC3","name":"accessorNormals"},{"bufferView":3,"byteOffset":42056,"componentType":5126,"count":6657,"type":"VEC2","name":"accessorUVs"},{"bufferView":0,"byteOffset":105096,"componentType":5125,"count":425241,"type":"SCALAR","name":"accessorIndices"},{"bufferView":1,"byteOffset":285936,"componentType":5126,"count":97644,"max":[0.217546254,0.0977446958,0.0891514942],"min":[-0.1800657,0.0209187716,-0.0845582038],"type":"VEC3","name":"accessorPositions"},{"bufferView":2,"byteOffset":190624,"componentType":5126,"count":97644,"type":"VEC4","name":"accessorTangents"},{"bufferView":1,"byteOffset":1457664,"componentType":5126,"count":97644,"type":"VEC3","name":"accessorNormals"},{"bufferView":3,"byteOffset":95312,"componentType":5126,"count":97644,"type":"VEC2","name":"accessorUVs"},{"bufferView":0,"byteOffset":1806060,"componentType":5123,"count":55104,"type":"SCALAR","name":"accessorIndices"},{"bufferView":1,"byteOffset":2629392,"componentType":5126,"count":10201,"max":[0.22331199,0.07820412,0.08925945],"min":[-0.177855477,0.0120559391,-0.0892594],"type":"VEC3","name":"accessorPositions"},{"bufferView":2,"byteOffset":1752928,"componentType":5126,"count":10201,"type":"VEC4","name":"accessorTangents"},{"bufferView":1,"byteOffset":2751804,"componentType":5126,"count":10201,"type":"VEC3","name":"accessorNormals"},{"bufferView":3,"byteOffset":876464,"componentType":5126,"count":10201,"type":"VEC2","name":"accessorUVs"}],"bufferViews":[{"buffer":0,"byteLength":1916268,"name":"bufferViewScalar"},{"buffer":0,"byteOffset":1916268,"byteLength":2874216,"byteStride":12,"name":"bufferViewFloatVec3"},{"buffer":0,"byteOffset":4790484,"byteLength":1916144,"byteStride":16,"name":"bufferViewFloatVec4"},{"buffer":0,"byteOffset":6706628,"byteLength":958072,"byteStride":8,"name":"bufferViewFloatVec2"}],"buffers":[{"uri":"benedict-square-diwan.bin","byteLength":7664700}],"materials":[{"pbrMetallicRoughness":{"baseColorFactor":[0.25098,0.25098,0.25098,1.0],"metallicFactor":0.0,"roughnessFactor":0.9},"doubleSided":true,"name":"Accesories","extras":{"babylonSeparateCullingPass":false}},{"pbrMetallicRoughness":{"baseColorFactor":[0.047059,0.047059,0.047059,1.0],"metallicFactor":0.0,"roughnessFactor":0.9},"doubleSided":true,"name":"BOTTOM","extras":{"babylonSeparateCullingPass":false}},{"pbrMetallicRoughness":{"baseColorFactor":[0.309804,0.309804,0.309804,1.0],"metallicFactor":0.0,"roughnessFactor":0.9},"doubleSided":true,"name":"CUSHION","extras":{"babylonSeparateCullingPass":false}},{"pbrMetallicRoughness":{"baseColorFactor":[0.572549,0.572549,0.572549,1.0],"metallicFactor":0.0,"roughnessFactor":0.9},"doubleSided":true,"name":"LEATHER","extras":{"babylonSeparateCullingPass":false}}]}