{"asset":{"version":"2.0","generator":"babylon.js glTF exporter for 3dsmax 2022 v20230608.5"},"scene":0,"scenes":[{"nodes":[0]}],"nodes":[{"mesh":0,"name":"Cylinder006"}],"meshes":[{"primitives":[{"attributes":{"POSITION":1,"TANGENT":2,"NORMAL":3,"TEXCOORD_0":4},"indices":0,"material":0}],"name":"Cylinder006"}],"accessors":[{"bufferView":0,"componentType":5123,"count":92664,"type":"SCALAR","name":"accessorIndices"},{"bufferView":1,"componentType":5126,"count":16882,"max":[0.487149447,0.48884213,0.487351626],"min":[-0.4871492,0.000194200009,-0.487351626],"type":"VEC3","name":"accessorPositions"},{"bufferView":2,"componentType":5126,"count":16882,"type":"VEC4","name":"accessorTangents"},{"bufferView":1,"byteOffset":202584,"componentType":5126,"count":16882,"type":"VEC3","name":"accessorNormals"},{"bufferView":3,"componentType":5126,"count":16882,"type":"VEC2","name":"accessorUVs"}],"bufferViews":[{"buffer":0,"byteLength":185328,"name":"bufferViewScalar"},{"buffer":0,"byteOffset":185328,"byteLength":405168,"byteStride":12,"name":"bufferViewFloatVec3"},{"buffer":0,"byteOffset":590496,"byteLength":270112,"byteStride":16,"name":"bufferViewFloatVec4"},{"buffer":0,"byteOffset":860608,"byteLength":135056,"byteStride":8,"name":"bufferViewFloatVec2"}],"buffers":[{"uri":"bubble01-design-coffee-table.bin","byteLength":995664}],"materials":[{"pbrMetallicRoughness":{"baseColorFactor":[0.5,0.5,0.5,1.0],"metallicFactor":0.0,"roughnessFactor":0.45},"doubleSided":true,"name":"Concrete","extras":{"babylonSeparateCullingPass":false}}]}