{"asset":{"version":"2.0","generator":"babylon.js glTF exporter for 3dsmax 2022 v20230608.5"},"scene":0,"scenes":[{"nodes":[0,1]}],"nodes":[{"mesh":0,"name":"Line003"},{"mesh":1,"name":"Box011fsf001s_Retopo003"}],"meshes":[{"primitives":[{"attributes":{"POSITION":1,"TANGENT":2,"NORMAL":3,"TEXCOORD_0":4},"indices":0,"material":0}],"name":"Line003"},{"primitives":[{"attributes":{"POSITION":6,"TANGENT":7,"NORMAL":8,"TEXCOORD_0":9},"indices":5,"material":1}],"name":"Box011fsf001s_Retopo003"}],"accessors":[{"bufferView":0,"componentType":5123,"count":10200,"type":"SCALAR","name":"accessorIndices"},{"bufferView":1,"componentType":5126,"count":2036,"max":[0.333754778,0.166333273,0.3164306],"min":[-0.314689,-0.000315269019,-0.162557632],"type":"VEC3","name":"accessorPositions"},{"bufferView":2,"componentType":5126,"count":2036,"type":"VEC4","name":"accessorTangents"},{"bufferView":1,"byteOffset":24432,"componentType":5126,"count":2036,"type":"VEC3","name":"accessorNormals"},{"bufferView":3,"componentType":5126,"count":2036,"type":"VEC2","name":"accessorUVs"},{"bufferView":0,"byteOffset":20400,"componentType":5123,"count":53112,"type":"SCALAR","name":"accessorIndices"},{"bufferView":1,"byteOffset":48864,"componentType":5126,"count":9555,"max":[0.553963542,0.736893952,0.4158135],"min":[-0.5394726,0.061589174,-0.4235546],"type":"VEC3","name":"accessorPositions"},{"bufferView":2,"byteOffset":32576,"componentType":5126,"count":9555,"type":"VEC4","name":"accessorTangents"},{"bufferView":1,"byteOffset":163524,"componentType":5126,"count":9555,"type":"VEC3","name":"accessorNormals"},{"bufferView":3,"byteOffset":16288,"componentType":5126,"count":9555,"type":"VEC2","name":"accessorUVs"}],"bufferViews":[{"buffer":0,"byteLength":126624,"name":"bufferViewScalar"},{"buffer":0,"byteOffset":126624,"byteLength":278184,"byteStride":12,"name":"bufferViewFloatVec3"},{"buffer":0,"byteOffset":404808,"byteLength":185456,"byteStride":16,"name":"bufferViewFloatVec4"},{"buffer":0,"byteOffset":590264,"byteLength":92728,"byteStride":8,"name":"bufferViewFloatVec2"}],"buffers":[{"uri":"club-chair.bin","byteLength":682992}],"materials":[{"pbrMetallicRoughness":{"baseColorFactor":[0.588235,0.588235,0.588235,1.0],"metallicFactor":0.0,"roughnessFactor":0.9},"doubleSided":true,"name":"LEGS","extras":{"babylonSeparateCullingPass":false}},{"pbrMetallicRoughness":{"baseColorFactor":[0.588235,0.588235,0.588235,1.0],"metallicFactor":0.0,"roughnessFactor":0.9},"doubleSided":true,"name":"BODY","extras":{"babylonSeparateCullingPass":false}}]}