{"asset":{"version":"2.0","generator":"babylon.js glTF exporter for 3dsmax 2022 v20230608.5"},"scene":0,"scenes":[{"nodes":[0,1]}],"nodes":[{"mesh":0,"name":"Cylinder005"},{"mesh":1,"name":"Object008"}],"meshes":[{"primitives":[{"attributes":{"POSITION":1,"TANGENT":2,"NORMAL":3,"TEXCOORD_0":4},"indices":0,"material":0}],"name":"Cylinder005"},{"primitives":[{"attributes":{"POSITION":6,"TANGENT":7,"NORMAL":8,"TEXCOORD_0":9},"indices":5,"material":1}],"name":"Object008"}],"accessors":[{"bufferView":0,"componentType":5123,"count":2976,"type":"SCALAR","name":"accessorIndices"},{"bufferView":1,"componentType":5126,"count":644,"max":[1.17685962,0.0471873023,0.4077826],"min":[-0.818803132,0.00156572915,-0.144776434],"type":"VEC3","name":"accessorPositions"},{"bufferView":2,"componentType":5126,"count":644,"type":"VEC4","name":"accessorTangents"},{"bufferView":1,"byteOffset":7728,"componentType":5126,"count":644,"type":"VEC3","name":"accessorNormals"},{"bufferView":3,"componentType":5126,"count":644,"type":"VEC2","name":"accessorUVs"},{"bufferView":0,"byteOffset":5952,"componentType":5123,"count":85830,"type":"SCALAR","name":"accessorIndices"},{"bufferView":1,"byteOffset":15456,"componentType":5126,"count":15527,"max":[1.32416809,0.779531837,0.482727855],"min":[-0.965851,0.03648014,-0.490192],"type":"VEC3","name":"accessorPositions"},{"bufferView":2,"byteOffset":10304,"componentType":5126,"count":15527,"type":"VEC4","name":"accessorTangents"},{"bufferView":1,"byteOffset":201780,"componentType":5126,"count":15527,"type":"VEC3","name":"accessorNormals"},{"bufferView":3,"byteOffset":5152,"componentType":5126,"count":15527,"type":"VEC2","name":"accessorUVs"}],"bufferViews":[{"buffer":0,"byteLength":177612,"name":"bufferViewScalar"},{"buffer":0,"byteOffset":177612,"byteLength":388104,"byteStride":12,"name":"bufferViewFloatVec3"},{"buffer":0,"byteOffset":565716,"byteLength":258736,"byteStride":16,"name":"bufferViewFloatVec4"},{"buffer":0,"byteOffset":824452,"byteLength":129368,"byteStride":8,"name":"bufferViewFloatVec2"}],"buffers":[{"uri":"curve-sofa-3.bin","byteLength":953820}],"materials":[{"pbrMetallicRoughness":{"baseColorFactor":[0.064748,0.064748,0.064748,1.0],"metallicFactor":0.0,"roughnessFactor":0.255953},"doubleSided":true,"name":"LEG","extras":{"babylonSeparateCullingPass":false}},{"pbrMetallicRoughness":{"baseColorFactor":[0.5,0.5,0.5,1.0],"metallicFactor":0.0,"roughnessFactor":0.31},"doubleSided":true,"name":"BODY","extras":{"babylonSeparateCullingPass":false}}]}