{"asset":{"version":"2.0","generator":"babylon.js glTF exporter for 3dsmax 2022 v20230608.5"},"scene":0,"scenes":[{"nodes":[0,1]}],"nodes":[{"mesh":0,"name":"Sofa"},{"mesh":1,"name":"Object003"}],"meshes":[{"primitives":[{"attributes":{"POSITION":1,"TANGENT":2,"NORMAL":3,"TEXCOORD_0":4},"indices":0,"material":0}],"name":"Sofa"},{"primitives":[{"attributes":{"POSITION":6,"TANGENT":7,"NORMAL":8,"TEXCOORD_0":9},"indices":5,"material":1}],"name":"Object003"}],"accessors":[{"bufferView":0,"componentType":5123,"count":65760,"type":"SCALAR","name":"accessorIndices"},{"bufferView":1,"componentType":5126,"count":11675,"max":[1.03759336,0.775254,0.7395392],"min":[-1.079987,-0.00168720318,-0.0734994859],"type":"VEC3","name":"accessorPositions"},{"bufferView":2,"componentType":5126,"count":11675,"type":"VEC4","name":"accessorTangents"},{"bufferView":1,"byteOffset":140100,"componentType":5126,"count":11675,"type":"VEC3","name":"accessorNormals"},{"bufferView":3,"componentType":5126,"count":11675,"type":"VEC2","name":"accessorUVs"},{"bufferView":0,"byteOffset":131520,"componentType":5123,"count":43008,"type":"SCALAR","name":"accessorIndices"},{"bufferView":1,"byteOffset":280200,"componentType":5126,"count":8157,"max":[0.7779648,-0.000847351039,0.5700653],"min":[-0.820753336,-0.0118662575,0.169605315],"type":"VEC3","name":"accessorPositions"},{"bufferView":2,"byteOffset":186800,"componentType":5126,"count":8157,"type":"VEC4","name":"accessorTangents"},{"bufferView":1,"byteOffset":378084,"componentType":5126,"count":8157,"type":"VEC3","name":"accessorNormals"},{"bufferView":3,"byteOffset":93400,"componentType":5126,"count":8157,"type":"VEC2","name":"accessorUVs"}],"bufferViews":[{"buffer":0,"byteLength":217536,"name":"bufferViewScalar"},{"buffer":0,"byteOffset":217536,"byteLength":475968,"byteStride":12,"name":"bufferViewFloatVec3"},{"buffer":0,"byteOffset":693504,"byteLength":317312,"byteStride":16,"name":"bufferViewFloatVec4"},{"buffer":0,"byteOffset":1010816,"byteLength":158656,"byteStride":8,"name":"bufferViewFloatVec2"}],"buffers":[{"uri":"curve-sofa-2.bin","byteLength":1169472}],"materials":[{"pbrMetallicRoughness":{"baseColorFactor":[0.588235,0.588235,0.588235,1.0],"metallicFactor":0.0,"roughnessFactor":0.9},"doubleSided":true,"name":"BODY","extras":{"babylonSeparateCullingPass":false}},{"pbrMetallicRoughness":{"baseColorFactor":[0.133333,0.133333,0.133333,1.0],"metallicFactor":0.0,"roughnessFactor":0.9},"doubleSided":true,"name":"09___Default","extras":{"babylonSeparateCullingPass":false}}]}