{"asset":{"version":"2.0","generator":"babylon.js glTF exporter for 3dsmax 2022 v20230608.5"},"scene":0,"scenes":[{"nodes":[0,1]}],"nodes":[{"mesh":0,"name":"000_Merged_Objects_1"},{"mesh":1,"name":"001_Merged_Objects"}],"meshes":[{"primitives":[{"attributes":{"POSITION":1,"TANGENT":2,"NORMAL":3,"TEXCOORD_0":4},"indices":0,"material":0}],"name":"000_Merged_Objects_1"},{"primitives":[{"attributes":{"POSITION":6,"TANGENT":7,"NORMAL":8,"TEXCOORD_0":9},"indices":5,"material":1}],"name":"001_Merged_Objects"}],"accessors":[{"bufferView":0,"componentType":5123,"count":121212,"type":"SCALAR","name":"accessorIndices"},{"bufferView":1,"componentType":5126,"count":23321,"max":[1.21809208,0.96995306,0.168915],"min":[-1.22207,0.170872,-0.871287048],"type":"VEC3","name":"accessorPositions"},{"bufferView":2,"componentType":5126,"count":23321,"type":"VEC4","name":"accessorTangents"},{"bufferView":1,"byteOffset":279852,"componentType":5126,"count":23321,"type":"VEC3","name":"accessorNormals"},{"bufferView":3,"componentType":5126,"count":23321,"type":"VEC2","name":"accessorUVs"},{"bufferView":0,"byteOffset":242424,"componentType":5123,"count":43200,"type":"SCALAR","name":"accessorIndices"},{"bufferView":1,"byteOffset":559704,"componentType":5126,"count":7608,"max":[1.0472641,0.194960013,0.0904220045],"min":[-1.052221,-0.000279000029,-0.8532491],"type":"VEC3","name":"accessorPositions"},{"bufferView":2,"byteOffset":373136,"componentType":5126,"count":7608,"type":"VEC4","name":"accessorTangents"},{"bufferView":1,"byteOffset":651000,"componentType":5126,"count":7608,"type":"VEC3","name":"accessorNormals"},{"bufferView":3,"byteOffset":186568,"componentType":5126,"count":7608,"type":"VEC2","name":"accessorUVs"}],"bufferViews":[{"buffer":0,"byteLength":328824,"name":"bufferViewScalar"},{"buffer":0,"byteOffset":328824,"byteLength":742296,"byteStride":12,"name":"bufferViewFloatVec3"},{"buffer":0,"byteOffset":1071120,"byteLength":494864,"byteStride":16,"name":"bufferViewFloatVec4"},{"buffer":0,"byteOffset":1565984,"byteLength":247432,"byteStride":8,"name":"bufferViewFloatVec2"}],"buffers":[{"uri":"felicia-2-seater.bin","byteLength":1813416}],"materials":[{"pbrMetallicRoughness":{"baseColorFactor":[0.5,0.5,0.5,1.0],"metallicFactor":0.0,"roughnessFactor":0.0},"doubleSided":true,"name":"Material__31_60a87223_4ab8_4a6b_8952_be38b9ff79f4","extras":{"babylonSeparateCullingPass":false}},{"pbrMetallicRoughness":{"baseColorFactor":[0.5,0.5,0.5,1.0],"metallicFactor":0.0,"roughnessFactor":0.0},"doubleSided":true,"name":"leg_wire_012012012_2dddda25_a48c_43d4_bec4_da3e8187ecd8","extras":{"babylonSeparateCullingPass":false}}]}