{"asset":{"version":"2.0","generator":"babylon.js glTF exporter for 3dsmax 2022 v20230608.5"},"scene":0,"scenes":[{"nodes":[0,1,2]}],"nodes":[{"mesh":0,"name":"Box024"},{"mesh":1,"name":"Object003"},{"mesh":2,"name":"LEGS003"}],"meshes":[{"primitives":[{"attributes":{"POSITION":1,"TANGENT":2,"NORMAL":3,"TEXCOORD_0":4},"indices":0,"material":0}],"name":"Box024"},{"primitives":[{"attributes":{"POSITION":6,"TANGENT":7,"NORMAL":8,"TEXCOORD_0":9},"indices":5,"material":1}],"name":"Object003"},{"primitives":[{"attributes":{"POSITION":11,"TANGENT":12,"NORMAL":13,"TEXCOORD_0":14},"indices":10,"material":2}],"name":"LEGS003"}],"accessors":[{"bufferView":0,"componentType":5125,"count":397764,"type":"SCALAR","name":"accessorIndices"},{"bufferView":1,"componentType":5126,"count":74986,"max":[1.66114724,0.769049466,1.26505339],"min":[-1.66114759,0.137237087,-1.26505351],"type":"VEC3","name":"accessorPositions"},{"bufferView":2,"componentType":5126,"count":74986,"type":"VEC4","name":"accessorTangents"},{"bufferView":1,"byteOffset":899832,"componentType":5126,"count":74986,"type":"VEC3","name":"accessorNormals"},{"bufferView":3,"componentType":5126,"count":74986,"type":"VEC2","name":"accessorUVs"},{"bufferView":0,"byteOffset":1591056,"componentType":5123,"count":5496,"type":"SCALAR","name":"accessorIndices"},{"bufferView":1,"byteOffset":1799664,"componentType":5126,"count":1268,"max":[1.56146657,0.145161524,1.08657551],"min":[-1.4849689,0.136729136,-1.15451753],"type":"VEC3","name":"accessorPositions"},{"bufferView":2,"byteOffset":1199776,"componentType":5126,"count":1268,"type":"VEC4","name":"accessorTangents"},{"bufferView":1,"byteOffset":1814880,"componentType":5126,"count":1268,"type":"VEC3","name":"accessorNormals"},{"bufferView":3,"byteOffset":599888,"componentType":5126,"count":1268,"type":"VEC2","name":"accessorUVs"},{"bufferView":0,"byteOffset":1602048,"componentType":5123,"count":106656,"type":"SCALAR","name":"accessorIndices"},{"bufferView":1,"byteOffset":1830096,"componentType":5126,"count":19420,"max":[1.65182364,0.151295841,1.0931654],"min":[-1.49900889,-0.000100047007,-1.24795282],"type":"VEC3","name":"accessorPositions"},{"bufferView":2,"byteOffset":1220064,"componentType":5126,"count":19420,"type":"VEC4","name":"accessorTangents"},{"bufferView":1,"byteOffset":2063136,"componentType":5126,"count":19420,"type":"VEC3","name":"accessorNormals"},{"bufferView":3,"byteOffset":610032,"componentType":5126,"count":19420,"type":"VEC2","name":"accessorUVs"}],"bufferViews":[{"buffer":0,"byteLength":1815360,"name":"bufferViewScalar"},{"buffer":0,"byteOffset":1815360,"byteLength":2296176,"byteStride":12,"name":"bufferViewFloatVec3"},{"buffer":0,"byteOffset":4111536,"byteLength":1530784,"byteStride":16,"name":"bufferViewFloatVec4"},{"buffer":0,"byteOffset":5642320,"byteLength":765392,"byteStride":8,"name":"bufferViewFloatVec2"}],"buffers":[{"uri":"felicia-u-sectional.bin","byteLength":6407712}],"materials":[{"pbrMetallicRoughness":{"baseColorFactor":[0.5,0.5,0.5,1.0],"metallicFactor":0.0,"roughnessFactor":0.81},"doubleSided":true,"name":"BODY","extras":{"babylonSeparateCullingPass":false}},{"pbrMetallicRoughness":{"baseColorFactor":[0.957219,0.957219,0.957219,1.0],"metallicFactor":0.0,"roughnessFactor":0.31},"doubleSided":true,"name":"BOttom","extras":{"babylonSeparateCullingPass":false}},{"pbrMetallicRoughness":{"baseColorFactor":[0.047059,0.047059,0.047059,1.0],"metallicFactor":0.0,"roughnessFactor":0.68},"doubleSided":true,"name":"LEGS","extras":{"babylonSeparateCullingPass":false}}]}