{"asset":{"version":"2.0","generator":"babylon.js glTF exporter for 3dsmax 2022 v20230608.5"},"scene":0,"scenes":[{"nodes":[0,1]}],"nodes":[{"mesh":0,"name":"000_Merged_Objects"},{"mesh":1,"name":"001_Merged_Objects_1"}],"meshes":[{"primitives":[{"attributes":{"POSITION":1,"TANGENT":2,"NORMAL":3,"TEXCOORD_0":4},"indices":0,"material":0}],"name":"000_Merged_Objects"},{"primitives":[{"attributes":{"POSITION":6,"TANGENT":7,"NORMAL":8,"TEXCOORD_0":9},"indices":5,"material":1}],"name":"001_Merged_Objects_1"}],"accessors":[{"bufferView":0,"componentType":5123,"count":43200,"type":"SCALAR","name":"accessorIndices"},{"bufferView":1,"componentType":5126,"count":7608,"max":[0.450056016,0.194019,0.434112],"min":[-0.451758027,-0.001077,-0.507373035],"type":"VEC3","name":"accessorPositions"},{"bufferView":2,"componentType":5126,"count":7608,"type":"VEC4","name":"accessorTangents"},{"bufferView":1,"byteOffset":91296,"componentType":5126,"count":7608,"type":"VEC3","name":"accessorNormals"},{"bufferView":3,"componentType":5126,"count":7608,"type":"VEC2","name":"accessorUVs"},{"bufferView":0,"byteOffset":86400,"componentType":5123,"count":73320,"type":"SCALAR","name":"accessorIndices"},{"bufferView":1,"byteOffset":182592,"componentType":5126,"count":13961,"max":[0.62031,0.969235,0.53024],"min":[-0.62031,0.170746014,-0.53024],"type":"VEC3","name":"accessorPositions"},{"bufferView":2,"byteOffset":121728,"componentType":5126,"count":13961,"type":"VEC4","name":"accessorTangents"},{"bufferView":1,"byteOffset":350124,"componentType":5126,"count":13961,"type":"VEC3","name":"accessorNormals"},{"bufferView":3,"byteOffset":60864,"componentType":5126,"count":13961,"type":"VEC2","name":"accessorUVs"}],"bufferViews":[{"buffer":0,"byteLength":233040,"name":"bufferViewScalar"},{"buffer":0,"byteOffset":233040,"byteLength":517656,"byteStride":12,"name":"bufferViewFloatVec3"},{"buffer":0,"byteOffset":750696,"byteLength":345104,"byteStride":16,"name":"bufferViewFloatVec4"},{"buffer":0,"byteOffset":1095800,"byteLength":172552,"byteStride":8,"name":"bufferViewFloatVec2"}],"buffers":[{"uri":"felicia-1-seater.bin","byteLength":1268352}],"materials":[{"pbrMetallicRoughness":{"baseColorFactor":[0.5,0.5,0.5,1.0],"metallicFactor":0.0,"roughnessFactor":0.0},"doubleSided":true,"name":"leg_wire_012012012_73c2a62e_7307_4fa9_b375_11053fd1a6b7","extras":{"babylonSeparateCullingPass":false}},{"pbrMetallicRoughness":{"baseColorFactor":[0.5,0.5,0.5,1.0],"metallicFactor":0.0,"roughnessFactor":0.0},"doubleSided":true,"name":"Material__31_d7128058_3107_4bce_ad5a_025c1b3754a9","extras":{"babylonSeparateCullingPass":false}}]}