{"asset":{"version":"2.0","generator":"babylon.js glTF exporter for 3dsmax 2022 v20230608.5"},"scene":0,"scenes":[{"nodes":[0,1,2]}],"nodes":[{"mesh":0,"name":"Cylinder001"},{"mesh":1,"name":"Box010"},{"mesh":2,"name":"Object004"}],"meshes":[{"primitives":[{"attributes":{"POSITION":1,"TANGENT":2,"NORMAL":3,"TEXCOORD_0":4},"indices":0,"material":0}],"name":"Cylinder001"},{"primitives":[{"attributes":{"POSITION":6,"TANGENT":7,"NORMAL":8,"TEXCOORD_0":9},"indices":5,"material":1}],"name":"Box010"},{"primitives":[{"attributes":{"POSITION":11,"TANGENT":12,"NORMAL":13,"TEXCOORD_0":14},"indices":10,"material":2}],"name":"Object004"}],"accessors":[{"bufferView":0,"componentType":5123,"count":5664,"type":"SCALAR","name":"accessorIndices"},{"bufferView":1,"componentType":5126,"count":1192,"max":[0.124596551,0.0167790446,0.0973705649],"min":[-0.107620381,-0.000104162005,-0.0411609039],"type":"VEC3","name":"accessorPositions"},{"bufferView":2,"componentType":5126,"count":1192,"type":"VEC4","name":"accessorTangents"},{"bufferView":1,"byteOffset":14304,"componentType":5126,"count":1192,"type":"VEC3","name":"accessorNormals"},{"bufferView":3,"componentType":5126,"count":1192,"type":"VEC2","name":"accessorUVs"},{"bufferView":0,"byteOffset":11328,"componentType":5123,"count":7968,"type":"SCALAR","name":"accessorIndices"},{"bufferView":1,"byteOffset":28608,"componentType":5126,"count":1612,"max":[0.130552471,0.0187929533,0.1017392],"min":[-0.1117953,0.015607751,-0.046017088],"type":"VEC3","name":"accessorPositions"},{"bufferView":2,"byteOffset":19072,"componentType":5126,"count":1612,"type":"VEC4","name":"accessorTangents"},{"bufferView":1,"byteOffset":47952,"componentType":5126,"count":1612,"type":"VEC3","name":"accessorNormals"},{"bufferView":3,"byteOffset":9536,"componentType":5126,"count":1612,"type":"VEC2","name":"accessorUVs"},{"bufferView":0,"byteOffset":27264,"componentType":5123,"count":133284,"type":"SCALAR","name":"accessorIndices"},{"bufferView":1,"byteOffset":67296,"componentType":5126,"count":23794,"max":[0.134734169,0.0724350438,0.110076949],"min":[-0.118062079,0.01788551,-0.05016097],"type":"VEC3","name":"accessorPositions"},{"bufferView":2,"byteOffset":44864,"componentType":5126,"count":23794,"type":"VEC4","name":"accessorTangents"},{"bufferView":1,"byteOffset":352824,"componentType":5126,"count":23794,"type":"VEC3","name":"accessorNormals"},{"bufferView":3,"byteOffset":22432,"componentType":5126,"count":23794,"type":"VEC2","name":"accessorUVs"}],"bufferViews":[{"buffer":0,"byteLength":293832,"name":"bufferViewScalar"},{"buffer":0,"byteOffset":293832,"byteLength":638352,"byteStride":12,"name":"bufferViewFloatVec3"},{"buffer":0,"byteOffset":932184,"byteLength":425568,"byteStride":16,"name":"bufferViewFloatVec4"},{"buffer":0,"byteOffset":1357752,"byteLength":212784,"byteStride":8,"name":"bufferViewFloatVec2"}],"buffers":[{"uri":"seymour-l-shape-right.bin","byteLength":1570536}],"materials":[{"pbrMetallicRoughness":{"baseColorFactor":[0.014388,0.014255,0.013388,1.0],"metallicFactor":0.0,"roughnessFactor":0.46},"doubleSided":true,"name":"METAL","extras":{"babylonSeparateCullingPass":false}},{"pbrMetallicRoughness":{"baseColorFactor":[0.058824,0.032586,0.032586,1.0],"metallicFactor":0.0,"roughnessFactor":0.31},"doubleSided":true,"name":"WOOD","extras":{"babylonSeparateCullingPass":false}},{"pbrMetallicRoughness":{"baseColorFactor":[0.652256,0.577176,0.427016,1.0],"metallicFactor":0.0,"roughnessFactor":0.255953},"doubleSided":true,"name":"CUSHION","extras":{"babylonSeparateCullingPass":false}}]}