{"asset":{"version":"2.0","generator":"babylon.js glTF exporter for 3dsmax 2022 v20230608.5"},"scene":0,"scenes":[{"nodes":[0,1]}],"nodes":[{"mesh":0,"name":"Cylinder014"},{"mesh":1,"name":"Box030"}],"meshes":[{"primitives":[{"attributes":{"POSITION":1,"TANGENT":2,"NORMAL":3,"TEXCOORD_0":4},"indices":0,"material":0}],"name":"Cylinder014"},{"primitives":[{"attributes":{"POSITION":6,"TANGENT":7,"NORMAL":8,"TEXCOORD_0":9},"indices":5,"material":1}],"name":"Box030"}],"accessors":[{"bufferView":0,"componentType":5123,"count":23496,"type":"SCALAR","name":"accessorIndices"},{"bufferView":1,"componentType":5126,"count":4796,"max":[1.76439023,0.0289248172,0.8314549],"min":[-1.7412523,-6.678401E-05,-0.839264],"type":"VEC3","name":"accessorPositions"},{"bufferView":2,"componentType":5126,"count":4796,"type":"VEC4","name":"accessorTangents"},{"bufferView":1,"byteOffset":57552,"componentType":5126,"count":4796,"type":"VEC3","name":"accessorNormals"},{"bufferView":3,"componentType":5126,"count":4796,"type":"VEC2","name":"accessorUVs"},{"bufferView":0,"byteOffset":46992,"componentType":5123,"count":199236,"type":"SCALAR","name":"accessorIndices"},{"bufferView":1,"byteOffset":115104,"componentType":5126,"count":36391,"max":[1.83448637,0.6654844,0.91221875],"min":[-1.834486,0.006643995,-0.91221875],"type":"VEC3","name":"accessorPositions"},{"bufferView":2,"byteOffset":76736,"componentType":5126,"count":36391,"type":"VEC4","name":"accessorTangents"},{"bufferView":1,"byteOffset":551796,"componentType":5126,"count":36391,"type":"VEC3","name":"accessorNormals"},{"bufferView":3,"byteOffset":38368,"componentType":5126,"count":36391,"type":"VEC2","name":"accessorUVs"}],"bufferViews":[{"buffer":0,"byteLength":445464,"name":"bufferViewScalar"},{"buffer":0,"byteOffset":445464,"byteLength":988488,"byteStride":12,"name":"bufferViewFloatVec3"},{"buffer":0,"byteOffset":1433952,"byteLength":658992,"byteStride":16,"name":"bufferViewFloatVec4"},{"buffer":0,"byteOffset":2092944,"byteLength":329496,"byteStride":8,"name":"bufferViewFloatVec2"}],"buffers":[{"uri":"soho.bin","byteLength":2422440}],"materials":[{"pbrMetallicRoughness":{"baseColorFactor":[0.047059,0.047059,0.047059,1.0],"metallicFactor":0.0,"roughnessFactor":0.68},"doubleSided":true,"name":"LEGS","extras":{"babylonSeparateCullingPass":false}},{"pbrMetallicRoughness":{"baseColorFactor":[0.107914,0.106911,0.100412,1.0],"metallicFactor":0.0,"roughnessFactor":0.37},"doubleSided":true,"name":"BODY","extras":{"babylonSeparateCullingPass":false}}]}