{"asset":{"version":"2.0","generator":"babylon.js glTF exporter for 3dsmax 2022 v20230608.5"},"scene":0,"scenes":[{"nodes":[0,1]}],"nodes":[{"mesh":0,"name":"Line003"},{"mesh":1,"name":"Cylinder002"}],"meshes":[{"primitives":[{"attributes":{"POSITION":1,"TANGENT":2,"NORMAL":3,"TEXCOORD_0":4},"indices":0,"material":0}],"name":"Line003"},{"primitives":[{"attributes":{"POSITION":6,"TANGENT":7,"NORMAL":8,"TEXCOORD_0":9},"indices":5,"material":0}],"name":"Cylinder002"}],"accessors":[{"bufferView":0,"componentType":5123,"count":50064,"type":"SCALAR","name":"accessorIndices"},{"bufferView":1,"componentType":5126,"count":8806,"max":[0.3614062,0.7287648,0.657475],"min":[-0.366882831,-0.0014244,-0.6600844],"type":"VEC3","name":"accessorPositions"},{"bufferView":2,"componentType":5126,"count":8806,"type":"VEC4","name":"accessorTangents"},{"bufferView":1,"byteOffset":105672,"componentType":5126,"count":8806,"type":"VEC3","name":"accessorNormals"},{"bufferView":3,"componentType":5126,"count":8806,"type":"VEC2","name":"accessorUVs"},{"bufferView":0,"byteOffset":100128,"componentType":5123,"count":24672,"type":"SCALAR","name":"accessorIndices"},{"bufferView":1,"byteOffset":211344,"componentType":5126,"count":4210,"max":[0.5687103,0.7723329,1.09951115],"min":[-0.574814141,0.724771,-1.09421849],"type":"VEC3","name":"accessorPositions"},{"bufferView":2,"byteOffset":140896,"componentType":5126,"count":4210,"type":"VEC4","name":"accessorTangents"},{"bufferView":1,"byteOffset":261864,"componentType":5126,"count":4210,"type":"VEC3","name":"accessorNormals"},{"bufferView":3,"byteOffset":70448,"componentType":5126,"count":4210,"type":"VEC2","name":"accessorUVs"}],"bufferViews":[{"buffer":0,"byteLength":149472,"name":"bufferViewScalar"},{"buffer":0,"byteOffset":149472,"byteLength":312384,"byteStride":12,"name":"bufferViewFloatVec3"},{"buffer":0,"byteOffset":461856,"byteLength":208256,"byteStride":16,"name":"bufferViewFloatVec4"},{"buffer":0,"byteOffset":670112,"byteLength":104128,"byteStride":8,"name":"bufferViewFloatVec2"}],"buffers":[{"uri":"table.bin","byteLength":774240}],"materials":[{"pbrMetallicRoughness":{"baseColorFactor":[0.5,0.5,0.5,1.0],"metallicFactor":0.0,"roughnessFactor":0.0},"doubleSided":true,"name":"Velvet","extras":{"babylonSeparateCullingPass":false}}]}