{
  "accessors": [
    {
      "bufferView": 0,
      "componentType": 5125,
      "count": 50064,
      "type": "SCALAR"
    },
    {
      "bufferView": 1,
      "componentType": 5126,
      "count": 8806,
      "max": [
        361.406188964844,
        728.764709472656,
        657.474975585938
      ],
      "min": [
        -366.8828125,
        -1.42440795898438,
        -660.084411621094
      ],
      "type": "VEC3"
    },
    {
      "bufferView": 2,
      "componentType": 5126,
      "count": 8806,
      "type": "VEC3"
    },
    {
      "bufferView": 3,
      "componentType": 5126,
      "count": 8806,
      "type": "VEC4"
    },
    {
      "bufferView": 4,
      "componentType": 5126,
      "count": 8806,
      "type": "VEC2"
    },
    {
      "bufferView": 5,
      "componentType": 5125,
      "count": 24672,
      "type": "SCALAR"
    },
    {
      "bufferView": 6,
      "componentType": 5126,
      "count": 4210,
      "max": [
        568.710327148438,
        772.332885742188,
        1099.51098632812
      ],
      "min": [
        -574.814086914062,
        724.77099609375,
        -1094.21850585938
      ],
      "type": "VEC3"
    },
    {
      "bufferView": 7,
      "componentType": 5126,
      "count": 4210,
      "type": "VEC3"
    },
    {
      "bufferView": 8,
      "componentType": 5126,
      "count": 4210,
      "type": "VEC4"
    },
    {
      "bufferView": 9,
      "componentType": 5126,
      "count": 4210,
      "type": "VEC2"
    }
  ],
  "asset": {
    "generator": "Adobe Substance 3D Painter 8.2.0",
    "version": "2.0"
  },
  "bufferViews": [
    {
      "buffer": 0,
      "byteLength": 200256,
      "target": 34963
    },
    {
      "buffer": 0,
      "byteLength": 105672,
      "byteOffset": 200256,
      "target": 34962
    },
    {
      "buffer": 0,
      "byteLength": 105672,
      "byteOffset": 305928,
      "target": 34962
    },
    {
      "buffer": 0,
      "byteLength": 140896,
      "byteOffset": 411600,
      "target": 34962
    },
    {
      "buffer": 0,
      "byteLength": 70448,
      "byteOffset": 552496,
      "target": 34962
    },
    {
      "buffer": 0,
      "byteLength": 98688,
      "byteOffset": 622944,
      "target": 34963
    },
    {
      "buffer": 0,
      "byteLength": 50520,
      "byteOffset": 721632,
      "target": 34962
    },
    {
      "buffer": 0,
      "byteLength": 50520,
      "byteOffset": 772152,
      "target": 34962
    },
    {
      "buffer": 0,
      "byteLength": 67360,
      "byteOffset": 822672,
      "target": 34962
    },
    {
      "buffer": 0,
      "byteLength": 33680,
      "byteOffset": 890032,
      "target": 34962
    }
  ],
  "buffers": [
    {
      "byteLength": 923712,
      "uri": "Table 004.bin"
    }
  ],
  "images": [
    {
      "uri": "Velvet_baseColor.png"
    },
    {
      "uri": "Velvet_occlusionRoughnessMetallic.png"
    },
    {
      "uri": "Velvet_normal.png"
    }
  ],
  "materials": [
    {
      "alphaMode": "OPAQUE",
      "name": "Velvet",
      "normalTexture": {
        "index": 2
      },
      "occlusionTexture": {
        "index": 1
      },
      "pbrMetallicRoughness": {
        "baseColorTexture": {
          "index": 0
        },
        "metallicRoughnessTexture": {
          "index": 1
        }
      }
    }
  ],
  "meshes": [
    {
      "name": "Line003",
      "primitives": [
        {
          "attributes": {
            "NORMAL": 2,
            "POSITION": 1,
            "TANGENT": 3,
            "TEXCOORD_0": 4
          },
          "indices": 0,
          "material": 0,
          "mode": 4
        }
      ]
    },
    {
      "name": "Cylinder002",
      "primitives": [
        {
          "attributes": {
            "NORMAL": 7,
            "POSITION": 6,
            "TANGENT": 8,
            "TEXCOORD_0": 9
          },
          "indices": 5,
          "material": 0,
          "mode": 4
        }
      ]
    }
  ],
  "nodes": [
    {
      "children": [
        1,
        3
      ],
      "name": "Table.obj"
    },
    {
      "children": [
        2
      ],
      "name": "Line003"
    },
    {
      "mesh": 0,
      "name": "Line003"
    },
    {
      "children": [
        4
      ],
      "name": "Cylinder002"
    },
    {
      "mesh": 1,
      "name": "Cylinder002"
    }
  ],
  "samplers": [
    {
      "magFilter": 9729,
      "minFilter": 9985,
      "wrapS": 10497,
      "wrapT": 10497
    }
  ],
  "scene": 0,
  "scenes": [
    {
      "name": "Scene",
      "nodes": [
        0
      ]
    }
  ],
  "textures": [
    {
      "sampler": 0,
      "source": 0
    },
    {
      "sampler": 0,
      "source": 1
    },
    {
      "sampler": 0,
      "source": 2
    }
  ]
}