{"asset":{"version":"2.0","generator":"babylon.js glTF exporter for 3dsmax 2022 v20230608.5"},"scene":0,"scenes":[{"nodes":[0,11]}],"nodes":[{"children":[1,2,3],"translation":[-42.2340431,0.459333062,19.84016],"name":"Group501"},{"mesh":0,"translation":[-1.18571877,0.0632920861,-1.06876957],"rotation":[0.6560906,7.13123245E-06,-6.19961065E-06,0.7546821],"scale":[1.294359,1.28057575,1.28057575],"name":"BER_ESC109"},{"mesh":0,"translation":[1.18571877,0.06329197,-1.06876957],"rotation":[-7.26318558E-06,-0.656090558,0.7546822,-6.31432431E-06],"scale":[1.294359,-1.28057551,1.28057551],"name":"BER_ESC157"},{"children":[4,6],"translation":[-0.008703126,-0.341904551,0.1266836],"name":"Group492"},{"children":[5],"translation":[-0.000414062524,0.343452036,-0.0569960959],"rotation":[0.0,-0.7071068,0.0,0.7071067],"name":"BERRY-BED002"},{"mesh":1,"translation":[0.0569941439,-0.272423178,-0.00057421875],"name":"Box836"},{"children":[7,8,9,10],"translation":[0.2385547,-0.0179961864,0.6536328],"name":"Group194"},{"mesh":2,"translation":[-1.520047,-0.0286875311,-0.6613789],"rotation":[-0.5,-0.5,0.5,-0.5],"name":"Line040"},{"mesh":3,"translation":[1.17387509,-0.0885769054,0.4493086],"rotation":[-0.5,-0.5,0.5,-0.5],"scale":[1.020257,1.020257,1.0],"name":"Object110"},{"mesh":4,"translation":[0.10703516,0.08019926,0.0328945331],"name":"Rectangle174"},{"mesh":5,"translation":[1.16501963,0.0472144634,0.337191433],"rotation":[0.70710665,2.21972485E-07,-2.21972428E-07,0.7071069],"scale":[1.0,-1.0,1.0],"name":"Box842"},{"children":[12,13,14,15,16,17,18],"translation":[-44.7775345,0.0,19.870985],"name":"lady_b_002"},{"mesh":6,"translation":[2.53556252,0.668828547,-0.5861758],"rotation":[0.7071068,0.0,0.0,0.7071068],"scale":[1.07491708,0.890874,1.23933411],"name":"lady_b_003"},{"mesh":7,"translation":[2.706172,0.380726665,0.09515625],"scale":[1.13413513,1.04779053,1.0],"name":"lady_b_010"},{"mesh":8,"translation":[1.662461,0.109659888,0.584406257],"scale":[1.13413513,1.0,1.0],"name":"lady_b_011"},{"mesh":9,"translation":[2.56366038,0.6753393,-0.289449245],"scale":[1.07491708,1.00812972,0.890874],"name":"lady_b_012"},{"mesh":10,"translation":[2.533383,0.585887849,-0.7548438],"rotation":[0.707106948,0.0,0.0,0.7071066],"scale":[1.07491708,1.14651394,1.11035526],"name":"lady_b_013"},{"mesh":11,"translation":[2.53556252,0.668828547,-0.5861758],"rotation":[0.7071068,0.0,0.0,0.7071067],"scale":[1.07491708,0.890874,1.23933411],"name":"lady_b_001"},{"mesh":12,"translation":[2.377336,0.0,-0.6074746],"scale":[1.13413513,1.0,1.0],"name":"lady_b_014"}],"meshes":[{"primitives":[{"attributes":{"POSITION":1,"NORMAL":2,"TEXCOORD_0":3},"indices":0}],"name":"BER_ESC109"},{"primitives":[{"attributes":{"POSITION":5,"NORMAL":6,"TEXCOORD_0":7},"indices":4}],"name":"Box836"},{"primitives":[{"attributes":{"POSITION":9,"NORMAL":10},"indices":8}],"name":"Line040"},{"primitives":[{"attributes":{"POSITION":12,"NORMAL":13},"indices":11}],"name":"Object110"},{"primitives":[{"attributes":{"POSITION":15,"NORMAL":16},"indices":14}],"name":"Rectangle174"},{"primitives":[{"attributes":{"POSITION":18,"NORMAL":19,"TEXCOORD_0":20},"indices":17}],"name":"Box842"},{"primitives":[{"attributes":{"POSITION":22,"NORMAL":23,"TEXCOORD_0":24},"indices":21}],"name":"lady_b_003"},{"primitives":[{"attributes":{"POSITION":26,"NORMAL":27,"TEXCOORD_0":28},"indices":25}],"name":"lady_b_010"},{"primitives":[{"attributes":{"POSITION":30,"NORMAL":31,"TEXCOORD_0":32},"indices":29}],"name":"lady_b_011"},{"primitives":[{"attributes":{"POSITION":34,"NORMAL":35,"TEXCOORD_0":36},"indices":33}],"name":"lady_b_012"},{"primitives":[{"attributes":{"POSITION":38,"NORMAL":39,"TEXCOORD_0":40},"indices":37}],"name":"lady_b_013"},{"primitives":[{"attributes":{"POSITION":42,"NORMAL":43,"TEXCOORD_0":44},"indices":41}],"name":"lady_b_001"},{"primitives":[{"attributes":{"POSITION":46,"NORMAL":47,"TEXCOORD_0":48},"indices":45}],"name":"lady_b_014"}],"accessors":[{"bufferView":0,"componentType":5123,"count":25344,"type":"SCALAR","name":"accessorIndices"},{"bufferView":1,"componentType":5126,"count":4776,"max":[0.916935861,0.168747619,0.260522425],"min":[0.117562652,-0.03204764,-0.302728355],"type":"VEC3","name":"accessorPositions"},{"bufferView":1,"byteOffset":57312,"componentType":5126,"count":4776,"type":"VEC3","name":"accessorNormals"},{"bufferView":2,"componentType":5126,"count":4776,"type":"VEC2","name":"accessorUVs"},{"bufferView":0,"byteOffset":50688,"componentType":5123,"count":22152,"type":"SCALAR","name":"accessorIndices"},{"bufferView":1,"byteOffset":114624,"componentType":5126,"count":3986,"max":[1.01437557,0.0360555127,1.024163],"min":[-1.15374517,-3.051758E-08,-1.0283035],"type":"VEC3","name":"accessorPositions"},{"bufferView":1,"byteOffset":162456,"componentType":5126,"count":3986,"type":"VEC3","name":"accessorNormals"},{"bufferView":2,"byteOffset":38208,"componentType":5126,"count":3986,"type":"VEC2","name":"accessorUVs"},{"bufferView":0,"byteOffset":94992,"componentType":5123,"count":23328,"type":"SCALAR","name":"accessorIndices"},{"bufferView":1,"byteOffset":210288,"componentType":5126,"count":3892,"max":[1.13965428,2.23123,0.0598548576],"min":[-0.9911866,0.336215228,-0.07948203],"type":"VEC3","name":"accessorPositions"},{"bufferView":1,"byteOffset":256992,"componentType":5126,"count":3892,"type":"VEC3","name":"accessorNormals"},{"bufferView":0,"byteOffset":141648,"componentType":5123,"count":2064,"type":"SCALAR","name":"accessorIndices"},{"bufferView":1,"byteOffset":303696,"componentType":5126,"count":704,"max":[2.20474267,-0.454026,0.0005113564],"min":[0.117601506,-2.31037569,-0.000511234335],"type":"VEC3","name":"accessorPositions"},{"bufferView":1,"byteOffset":312144,"componentType":5126,"count":704,"type":"VEC3","name":"accessorNormals"},{"bufferView":0,"byteOffset":145776,"componentType":5123,"count":16128,"type":"SCALAR","name":"accessorIndices"},{"bufferView":1,"byteOffset":320592,"componentType":5126,"count":2725,"max":[0.61436075,0.008888947,0.214178845],"min":[-1.30107963,-0.0271111466,-1.72540617],"type":"VEC3","name":"accessorPositions"},{"bufferView":1,"byteOffset":353292,"componentType":5126,"count":2725,"type":"VEC3","name":"accessorNormals"},{"bufferView":0,"byteOffset":178032,"componentType":5123,"count":72,"type":"SCALAR","name":"accessorIndices"},{"bufferView":1,"byteOffset":385992,"componentType":5126,"count":48,"max":[-0.4711487,0.1793706,0.0149999475],"min":[-2.33153915,0.139369473,-0.015000077],"type":"VEC3","name":"accessorPositions"},{"bufferView":1,"byteOffset":386568,"componentType":5126,"count":48,"type":"VEC3","name":"accessorNormals"},{"bufferView":2,"byteOffset":70096,"componentType":5126,"count":48,"type":"VEC2","name":"accessorUVs"},{"bufferView":0,"byteOffset":178176,"componentType":5123,"count":380592,"type":"SCALAR","name":"accessorIndices"},{"bufferView":1,"byteOffset":387144,"componentType":5126,"count":65436,"max":[0.9460899,0.108493716,0.155285165],"min":[-0.9460899,-0.286170185,-0.156875551],"type":"VEC3","name":"accessorPositions"},{"bufferView":1,"byteOffset":1172376,"componentType":5126,"count":65436,"type":"VEC3","name":"accessorNormals"},{"bufferView":2,"byteOffset":70480,"componentType":5126,"count":65436,"type":"VEC2","name":"accessorUVs"},{"bufferView":0,"byteOffset":939360,"componentType":5125,"count":1230810,"type":"SCALAR","name":"accessorIndices"},{"bufferView":1,"byteOffset":1957608,"componentType":5126,"count":206858,"max":[0.7767518,0.167994633,1.017909],"min":[-1.0541966,-0.167994648,-0.995511234],"type":"VEC3","name":"accessorPositions"},{"bufferView":1,"byteOffset":4439904,"componentType":5126,"count":206858,"type":"VEC3","name":"accessorNormals"},{"bufferView":2,"byteOffset":593968,"componentType":5126,"count":206858,"type":"VEC2","name":"accessorUVs"},{"bufferView":0,"byteOffset":5862600,"componentType":5125,"count":773112,"type":"SCALAR","name":"accessorIndices"},{"bufferView":1,"byteOffset":6922200,"componentType":5126,"count":131316,"max":[1.83080685,0.513826132,0.5893328],"min":[-0.292526,0.0886673257,-0.7626912],"type":"VEC3","name":"accessorPositions"},{"bufferView":1,"byteOffset":8497992,"componentType":5126,"count":131316,"type":"VEC3","name":"accessorNormals"},{"bufferView":2,"byteOffset":2248832,"componentType":5126,"count":131316,"type":"VEC2","name":"accessorUVs"},{"bufferView":0,"byteOffset":8955048,"componentType":5123,"count":157128,"type":"SCALAR","name":"accessorIndices"},{"bufferView":1,"byteOffset":10073784,"componentType":5126,"count":26648,"max":[0.3643167,0.135576725,0.148694173],"min":[-0.364316732,-0.154176831,-0.141757444],"type":"VEC3","name":"accessorPositions"},{"bufferView":1,"byteOffset":10393560,"componentType":5126,"count":26648,"type":"VEC3","name":"accessorNormals"},{"bufferView":2,"byteOffset":3299360,"componentType":5126,"count":26648,"type":"VEC2","name":"accessorUVs"},{"bufferView":0,"byteOffset":9269304,"componentType":5123,"count":107904,"type":"SCALAR","name":"accessorIndices"},{"bufferView":1,"byteOffset":10713336,"componentType":5126,"count":18786,"max":[0.9066783,0.08162214,0.09162055],"min":[-0.9066783,-0.0816222,-0.09162043],"type":"VEC3","name":"accessorPositions"},{"bufferView":1,"byteOffset":10938768,"componentType":5126,"count":18786,"type":"VEC3","name":"accessorNormals"},{"bufferView":2,"byteOffset":3512544,"componentType":5126,"count":18786,"type":"VEC2","name":"accessorUVs"},{"bufferView":0,"byteOffset":9485112,"componentType":5123,"count":334560,"type":"SCALAR","name":"accessorIndices"},{"bufferView":1,"byteOffset":11164200,"componentType":5126,"count":56720,"max":[0.910209239,0.286170244,0.149276927],"min":[-0.9133251,-0.03176215,-0.148106575],"type":"VEC3","name":"accessorPositions"},{"bufferView":1,"byteOffset":11844840,"componentType":5126,"count":56720,"type":"VEC3","name":"accessorNormals"},{"bufferView":2,"byteOffset":3662832,"componentType":5126,"count":56720,"type":"VEC2","name":"accessorUVs"},{"bufferView":0,"byteOffset":10154232,"componentType":5125,"count":381696,"type":"SCALAR","name":"accessorIndices"},{"bufferView":1,"byteOffset":12525480,"componentType":5126,"count":68063,"max":[1.07926774,0.6128031,1.37432718],"min":[-1.11387634,-0.000970100053,0.7571418],"type":"VEC3","name":"accessorPositions"},{"bufferView":1,"byteOffset":13342236,"componentType":5126,"count":68063,"type":"VEC3","name":"accessorNormals"},{"bufferView":2,"byteOffset":4116592,"componentType":5126,"count":68063,"type":"VEC2","name":"accessorUVs"}],"bufferViews":[{"buffer":0,"byteLength":11681016,"name":"bufferViewScalar"},{"buffer":0,"byteOffset":11681016,"byteLength":14158992,"byteStride":12,"name":"bufferViewFloatVec3"},{"buffer":0,"byteOffset":25840008,"byteLength":4661096,"byteStride":8,"name":"bufferViewFloatVec2"}],"buffers":[{"uri":"test.bin","byteLength":30501104}]}