{"asset":{"version":"2.0","generator":"babylon.js glTF exporter for 3dsmax 2022 v20230608.5"},"scene":0,"scenes":[{"nodes":[0,1,2]}],"nodes":[{"mesh":0,"name":"Object057"},{"mesh":1,"name":"Object059"},{"mesh":2,"name":"Object067"}],"meshes":[{"primitives":[{"attributes":{"POSITION":1,"NORMAL":2,"TEXCOORD_0":3},"indices":0,"material":0}],"name":"Object057"},{"primitives":[{"attributes":{"POSITION":5,"NORMAL":6,"TEXCOORD_0":7},"indices":4,"material":1}],"name":"Object059"},{"primitives":[{"attributes":{"POSITION":9,"NORMAL":10,"TEXCOORD_0":11},"indices":8,"material":2}],"name":"Object067"}],"accessors":[{"bufferView":0,"componentType":5123,"count":150249,"type":"SCALAR","name":"accessorIndices"},{"bufferView":1,"componentType":5126,"count":26601,"max":[0.08580211,0.07620837,0.0444641672],"min":[-0.11175365,0.01765564,-0.0459161475],"type":"VEC3","name":"accessorPositions"},{"bufferView":1,"byteOffset":319212,"componentType":5126,"count":26601,"type":"VEC3","name":"accessorNormals"},{"bufferView":2,"componentType":5126,"count":26601,"type":"VEC2","name":"accessorUVs"},{"bufferView":0,"byteOffset":300500,"componentType":5123,"count":4428,"type":"SCALAR","name":"accessorIndices"},{"bufferView":1,"byteOffset":638424,"componentType":5126,"count":992,"max":[0.0818472952,0.0206412841,0.0401728451],"min":[-0.109298736,-0.000415909017,-0.0431004353],"type":"VEC3","name":"accessorPositions"},{"bufferView":1,"byteOffset":650328,"componentType":5126,"count":992,"type":"VEC3","name":"accessorNormals"},{"bufferView":2,"byteOffset":212808,"componentType":5126,"count":992,"type":"VEC2","name":"accessorUVs"},{"bufferView":0,"byteOffset":309356,"componentType":5123,"count":1428,"type":"SCALAR","name":"accessorIndices"},{"bufferView":1,"byteOffset":662232,"componentType":5126,"count":320,"max":[-0.07989585,0.0244645234,0.0427454561],"min":[-0.1097864,0.0227883961,-0.04548863],"type":"VEC3","name":"accessorPositions"},{"bufferView":1,"byteOffset":666072,"componentType":5126,"count":320,"type":"VEC3","name":"accessorNormals"},{"bufferView":2,"byteOffset":220744,"componentType":5126,"count":320,"type":"VEC2","name":"accessorUVs"}],"bufferViews":[{"buffer":0,"byteLength":312212,"name":"bufferViewScalar"},{"buffer":0,"byteOffset":312212,"byteLength":669912,"byteStride":12,"name":"bufferViewFloatVec3"},{"buffer":0,"byteOffset":982124,"byteLength":223304,"byteStride":8,"name":"bufferViewFloatVec2"}],"buffers":[{"uri":"theo-2-seater-with-table-left.bin","byteLength":1205428}],"materials":[{"pbrMetallicRoughness":{"baseColorFactor":[0.5,0.5,0.5,1.0],"metallicFactor":0.0,"roughnessFactor":0.0},"doubleSided":true,"name":"CUSHION","extras":{"babylonSeparateCullingPass":false}},{"pbrMetallicRoughness":{"baseColorFactor":[0.5,0.5,0.5,1.0],"metallicFactor":0.0,"roughnessFactor":0.0},"doubleSided":true,"name":"LEGS","extras":{"babylonSeparateCullingPass":false}},{"pbrMetallicRoughness":{"baseColorFactor":[0.5,0.5,0.5,1.0],"metallicFactor":0.0,"roughnessFactor":0.0},"doubleSided":true,"name":"WOOD","extras":{"babylonSeparateCullingPass":false}}]}