{"asset":{"version":"2.0","generator":"babylon.js glTF exporter for 3dsmax 2022 v20230608.5"},"scene":0,"scenes":[{"nodes":[0,1,2]}],"nodes":[{"mesh":0,"name":"Object104"},{"mesh":1,"name":"Object105"},{"mesh":2,"name":"Object106"}],"meshes":[{"primitives":[{"attributes":{"POSITION":1,"TANGENT":2,"NORMAL":3,"TEXCOORD_0":4},"indices":0,"material":0}],"name":"Object104"},{"primitives":[{"attributes":{"POSITION":6,"TANGENT":7,"NORMAL":8,"TEXCOORD_0":9},"indices":5,"material":1}],"name":"Object105"},{"primitives":[{"attributes":{"POSITION":11,"TANGENT":12,"NORMAL":13,"TEXCOORD_0":14},"indices":10,"material":2}],"name":"Object106"}],"accessors":[{"bufferView":0,"componentType":5123,"count":150249,"type":"SCALAR","name":"accessorIndices"},{"bufferView":1,"componentType":5126,"count":26601,"max":[0.115660325,0.07663454,0.0444640741],"min":[-0.08189545,0.0180818066,-0.045916222],"type":"VEC3","name":"accessorPositions"},{"bufferView":2,"componentType":5126,"count":26601,"type":"VEC4","name":"accessorTangents"},{"bufferView":1,"byteOffset":319212,"componentType":5126,"count":26601,"type":"VEC3","name":"accessorNormals"},{"bufferView":3,"componentType":5126,"count":26601,"type":"VEC2","name":"accessorUVs"},{"bufferView":0,"byteOffset":300500,"componentType":5123,"count":4428,"type":"SCALAR","name":"accessorIndices"},{"bufferView":1,"byteOffset":638424,"componentType":5126,"count":992,"max":[0.113205381,0.0210674647,0.0401728451],"min":[-0.07794065,1.0271E-05,-0.0431004353],"type":"VEC3","name":"accessorPositions"},{"bufferView":2,"byteOffset":425616,"componentType":5126,"count":992,"type":"VEC4","name":"accessorTangents"},{"bufferView":1,"byteOffset":650328,"componentType":5126,"count":992,"type":"VEC3","name":"accessorNormals"},{"bufferView":3,"byteOffset":212808,"componentType":5126,"count":992,"type":"VEC2","name":"accessorUVs"},{"bufferView":0,"byteOffset":309356,"componentType":5123,"count":1428,"type":"SCALAR","name":"accessorIndices"},{"bufferView":1,"byteOffset":662232,"componentType":5126,"count":320,"max":[0.113693044,0.0248906966,0.0427454561],"min":[0.08380249,0.02321457,-0.04548863],"type":"VEC3","name":"accessorPositions"},{"bufferView":2,"byteOffset":441488,"componentType":5126,"count":320,"type":"VEC4","name":"accessorTangents"},{"bufferView":1,"byteOffset":666072,"componentType":5126,"count":320,"type":"VEC3","name":"accessorNormals"},{"bufferView":3,"byteOffset":220744,"componentType":5126,"count":320,"type":"VEC2","name":"accessorUVs"}],"bufferViews":[{"buffer":0,"byteLength":312212,"name":"bufferViewScalar"},{"buffer":0,"byteOffset":312212,"byteLength":669912,"byteStride":12,"name":"bufferViewFloatVec3"},{"buffer":0,"byteOffset":982124,"byteLength":446608,"byteStride":16,"name":"bufferViewFloatVec4"},{"buffer":0,"byteOffset":1428732,"byteLength":223304,"byteStride":8,"name":"bufferViewFloatVec2"}],"buffers":[{"uri":"theo-2-seater-with-table-right.bin","byteLength":1652036}],"materials":[{"pbrMetallicRoughness":{"baseColorFactor":[0.5,0.5,0.5,1.0],"metallicFactor":0.55,"roughnessFactor":0.65},"doubleSided":true,"name":"CUSHION","extras":{"babylonSeparateCullingPass":false}},{"pbrMetallicRoughness":{"baseColorFactor":[0.058824,0.058824,0.058824,1.0],"metallicFactor":0.0,"roughnessFactor":0.0},"doubleSided":true,"name":"LEGS","extras":{"babylonSeparateCullingPass":false}},{"pbrMetallicRoughness":{"baseColorFactor":[0.156863,0.156863,0.156863,1.0],"metallicFactor":0.0,"roughnessFactor":0.31},"doubleSided":true,"name":"WOOD","extras":{"babylonSeparateCullingPass":false}}]}