{"asset":{"version":"2.0","generator":"babylon.js glTF exporter for 3dsmax 2022 v20230608.5"},"scene":0,"scenes":[{"nodes":[0,1,2]}],"nodes":[{"mesh":0,"name":"Box050"},{"mesh":1,"name":"Cylinder012"},{"mesh":2,"name":"Object097"}],"meshes":[{"primitives":[{"attributes":{"POSITION":1,"TANGENT":2,"NORMAL":3,"TEXCOORD_0":4},"indices":0,"material":0}],"name":"Box050"},{"primitives":[{"attributes":{"POSITION":6,"TANGENT":7,"NORMAL":8,"TEXCOORD_0":9},"indices":5,"material":1}],"name":"Cylinder012"},{"primitives":[{"attributes":{"POSITION":11,"TANGENT":12,"NORMAL":13,"TEXCOORD_0":14},"indices":10,"material":2}],"name":"Object097"}],"accessors":[{"bufferView":0,"componentType":5123,"count":1428,"type":"SCALAR","name":"accessorIndices"},{"bufferView":1,"componentType":5126,"count":320,"max":[0.119742386,0.0247574411,0.0372573771],"min":[0.08993734,0.02308611,-0.050724294],"type":"VEC3","name":"accessorPositions"},{"bufferView":2,"componentType":5126,"count":320,"type":"VEC4","name":"accessorTangents"},{"bufferView":1,"byteOffset":3840,"componentType":5126,"count":320,"type":"VEC3","name":"accessorNormals"},{"bufferView":3,"componentType":5126,"count":320,"type":"VEC2","name":"accessorUVs"},{"bufferView":0,"byteOffset":2856,"componentType":5123,"count":8700,"type":"SCALAR","name":"accessorIndices"},{"bufferView":1,"byteOffset":7680,"componentType":5126,"count":1954,"max":[0.119256094,0.0209451467,0.106420524],"min":[-0.15164569,-5.1811E-05,-0.0483429432],"type":"VEC3","name":"accessorPositions"},{"bufferView":2,"byteOffset":5120,"componentType":5126,"count":1954,"type":"VEC4","name":"accessorTangents"},{"bufferView":1,"byteOffset":31128,"componentType":5126,"count":1954,"type":"VEC3","name":"accessorNormals"},{"bufferView":3,"byteOffset":2560,"componentType":5126,"count":1954,"type":"VEC2","name":"accessorUVs"},{"bufferView":0,"byteOffset":20256,"componentType":5123,"count":237897,"type":"SCALAR","name":"accessorIndices"},{"bufferView":1,"byteOffset":54576,"componentType":5126,"count":43365,"max":[0.121704,0.07635327,0.1090803],"min":[-0.156163558,0.0179680381,-0.0511439927],"type":"VEC3","name":"accessorPositions"},{"bufferView":2,"byteOffset":36384,"componentType":5126,"count":43365,"type":"VEC4","name":"accessorTangents"},{"bufferView":1,"byteOffset":574956,"componentType":5126,"count":43365,"type":"VEC3","name":"accessorNormals"},{"bufferView":3,"byteOffset":18192,"componentType":5126,"count":43365,"type":"VEC2","name":"accessorUVs"}],"bufferViews":[{"buffer":0,"byteLength":496052,"name":"bufferViewScalar"},{"buffer":0,"byteOffset":496052,"byteLength":1095336,"byteStride":12,"name":"bufferViewFloatVec3"},{"buffer":0,"byteOffset":1591388,"byteLength":730224,"byteStride":16,"name":"bufferViewFloatVec4"},{"buffer":0,"byteOffset":2321612,"byteLength":365112,"byteStride":8,"name":"bufferViewFloatVec2"}],"buffers":[{"uri":"theo-l-shape-right.bin","byteLength":2686724}],"materials":[{"pbrMetallicRoughness":{"baseColorFactor":[0.5,0.5,0.5,1.0],"metallicFactor":0.0,"roughnessFactor":0.0},"doubleSided":true,"name":"WOOD","extras":{"babylonSeparateCullingPass":false}},{"pbrMetallicRoughness":{"baseColorFactor":[0.5,0.5,0.5,1.0],"metallicFactor":0.0,"roughnessFactor":0.0},"doubleSided":true,"name":"LEGS","extras":{"babylonSeparateCullingPass":false}},{"pbrMetallicRoughness":{"baseColorFactor":[0.5,0.5,0.5,1.0],"metallicFactor":0.0,"roughnessFactor":0.0},"doubleSided":true,"name":"CUSHION","extras":{"babylonSeparateCullingPass":false}}]}