{"asset":{"version":"2.0","generator":"babylon.js glTF exporter for 3dsmax 2022 v20230608.5"},"scene":0,"scenes":[{"nodes":[0]}],"nodes":[{"children":[1,2,5,6,7],"translation":[-0.151091859,0.252975374,2.28881845E-07],"rotation":[0.0,4.371139E-08,1.0,0.0],"scale":[10.0,-10.0,10.0],"name":"Group015"},{"mesh":0,"translation":[0.065187946,-0.00750859128,0.02077537],"rotation":[0.0,-1.0,2.76121242E-15,-4.33125763E-07],"scale":[0.643325,0.643325,0.643325],"name":"Box015","extras":{"versionUI":5,"iterations":20,"preventBorderOverlap":0,"borderPadding":1.0,"preserveHoles":0,"densitySource":1,"mapChannel":0,"invert":0,"density":1.0}},{"children":[3,4],"translation":[-0.00040458396,-0.0183172151,-0.0004662541],"scale":[0.613311,0.613311,0.613311],"name":"Group014"},{"mesh":1,"translation":[-0.123909287,-0.011317783,0.07182608],"rotation":[-3.38696585E-15,0.0,0.0,1.0],"scale":[1.048937,1.048937,1.048937],"name":"Cylinder007","extras":{"versionUI":5,"iterations":20,"preventBorderOverlap":0,"borderPadding":1.0,"preserveHoles":0,"densitySource":1,"mapChannel":0,"invert":0,"density":1.0}},{"mesh":2,"translation":[0.113827288,0.008100755,-0.00185910426],"rotation":[-3.38696585E-15,0.0,0.0,1.0],"scale":[1.048937,1.048937,1.048937],"name":"Box032","extras":{"versionUI":5,"iterations":1,"preventBorderOverlap":0,"borderPadding":1.0,"preserveHoles":0,"densitySource":1,"mapChannel":0,"invert":0,"density":1.0}},{"mesh":3,"translation":[-0.02195424,0.0110762734,-0.0530370846],"rotation":[4.72043669E-15,0.0,0.0,1.0],"scale":[0.752624,0.752624,0.752624],"name":"Object011"},{"mesh":4,"translation":[0.065187946,-0.00750859128,0.02077537],"rotation":[1.31664869E-21,-1.0,2.76121242E-15,-3.13916473E-07],"scale":[0.643325,0.643325,0.643325],"name":"Object016","extras":{"versionUI":5,"iterations":20,"preventBorderOverlap":0,"borderPadding":1.0,"preserveHoles":0,"densitySource":1,"mapChannel":0,"invert":0,"density":1.0}},{"mesh":5,"translation":[-0.07908514,-0.009407822,-0.06044867],"rotation":[0.7071068,0.0,0.0,0.7071067],"scale":[0.643325,0.643325,0.808696],"name":"Box012","extras":{"versionUI":5,"iterations":1,"preventBorderOverlap":0,"borderPadding":1.0,"preserveHoles":0,"densitySource":1,"mapChannel":0,"invert":0,"density":1.0}}],"meshes":[{"primitives":[{"attributes":{"POSITION":1,"TANGENT":2,"NORMAL":3,"COLOR_0":4,"TEXCOORD_0":5},"indices":0,"material":0}],"name":"Box015"},{"primitives":[{"attributes":{"POSITION":7,"TANGENT":8,"NORMAL":9,"TEXCOORD_0":10},"indices":6,"material":1}],"name":"Cylinder007"},{"primitives":[{"attributes":{"POSITION":12,"TANGENT":13,"NORMAL":14,"TEXCOORD_0":15},"indices":11,"material":2}],"name":"Box032"},{"primitives":[{"attributes":{"POSITION":17,"TANGENT":18,"NORMAL":19,"TEXCOORD_0":20},"indices":16,"material":3}],"name":"Object011"},{"primitives":[{"attributes":{"POSITION":22,"TANGENT":23,"NORMAL":24,"TEXCOORD_0":25},"indices":21,"material":0}],"name":"Object016"},{"primitives":[{"attributes":{"POSITION":27,"TANGENT":28,"NORMAL":29,"TEXCOORD_0":30},"indices":26,"material":4}],"name":"Box012"}],"accessors":[{"bufferView":0,"componentType":5123,"count":202440,"type":"SCALAR","name":"accessorIndices"},{"bufferView":1,"componentType":5126,"count":36399,"max":[0.2536367,0.0509340577,0.17173548],"min":[-0.050977055,-0.009071141,-0.107147969],"type":"VEC3","name":"accessorPositions"},{"bufferView":2,"componentType":5126,"count":36399,"type":"VEC4","name":"accessorTangents"},{"bufferView":1,"byteOffset":436788,"componentType":5126,"count":36399,"type":"VEC3","name":"accessorNormals"},{"bufferView":2,"byteOffset":582384,"componentType":5126,"count":36399,"type":"VEC4","name":"accessorColors"},{"bufferView":3,"componentType":5126,"count":36399,"type":"VEC2","name":"accessorUVs"},{"bufferView":0,"byteOffset":404880,"componentType":5123,"count":7632,"type":"SCALAR","name":"accessorIndices"},{"bufferView":1,"byteOffset":873576,"componentType":5126,"count":1752,"max":[0.263105422,0.0215795375,0.0542069152],"min":[0.007710003,0.0,-0.195707038],"type":"VEC3","name":"accessorPositions"},{"bufferView":2,"byteOffset":1164768,"componentType":5126,"count":1752,"type":"VEC4","name":"accessorTangents"},{"bufferView":1,"byteOffset":894600,"componentType":5126,"count":1752,"type":"VEC3","name":"accessorNormals"},{"bufferView":3,"byteOffset":291192,"componentType":5126,"count":1752,"type":"VEC2","name":"accessorUVs"},{"bufferView":0,"byteOffset":420144,"componentType":5123,"count":5340,"type":"SCALAR","name":"accessorIndices"},{"bufferView":1,"byteOffset":915624,"componentType":5126,"count":1164,"max":[0.04064529,0.000395181763,0.137610883],"min":[-0.257678956,-6.585311E-05,-0.134066135],"type":"VEC3","name":"accessorPositions"},{"bufferView":2,"byteOffset":1192800,"componentType":5126,"count":1164,"type":"VEC4","name":"accessorTangents"},{"bufferView":1,"byteOffset":929592,"componentType":5126,"count":1164,"type":"VEC3","name":"accessorNormals"},{"bufferView":3,"byteOffset":305208,"componentType":5126,"count":1164,"type":"VEC2","name":"accessorUVs"},{"bufferView":0,"byteOffset":430824,"componentType":5123,"count":77376,"type":"SCALAR","name":"accessorIndices"},{"bufferView":1,"byteOffset":943560,"componentType":5126,"count":14526,"max":[0.123177476,0.0115421312,0.173228279],"min":[-0.0271172039,-0.01239801,-0.0126342969],"type":"VEC3","name":"accessorPositions"},{"bufferView":2,"byteOffset":1211424,"componentType":5126,"count":14526,"type":"VEC4","name":"accessorTangents"},{"bufferView":1,"byteOffset":1117872,"componentType":5126,"count":14526,"type":"VEC3","name":"accessorNormals"},{"bufferView":3,"byteOffset":314520,"componentType":5126,"count":14526,"type":"VEC2","name":"accessorUVs"},{"bufferView":0,"byteOffset":585576,"componentType":5123,"count":202110,"type":"SCALAR","name":"accessorIndices"},{"bufferView":1,"byteOffset":1292184,"componentType":5126,"count":35254,"max":[0.219762966,0.04294248,0.144312054],"min":[-0.02425057,0.0114298593,-0.100395128],"type":"VEC3","name":"accessorPositions"},{"bufferView":2,"byteOffset":1443840,"componentType":5126,"count":35254,"type":"VEC4","name":"accessorTangents"},{"bufferView":1,"byteOffset":1715232,"componentType":5126,"count":35254,"type":"VEC3","name":"accessorNormals"},{"bufferView":3,"byteOffset":430728,"componentType":5126,"count":35254,"type":"VEC2","name":"accessorUVs"},{"bufferView":0,"byteOffset":989796,"componentType":5123,"count":1428,"type":"SCALAR","name":"accessorIndices"},{"bufferView":1,"byteOffset":2138280,"componentType":5126,"count":320,"max":[0.003273163,0.04537507,0.00068322185],"min":[-0.0273588542,-0.04504773,-0.0006832223],"type":"VEC3","name":"accessorPositions"},{"bufferView":2,"byteOffset":2007904,"componentType":5126,"count":320,"type":"VEC4","name":"accessorTangents"},{"bufferView":1,"byteOffset":2142120,"componentType":5126,"count":320,"type":"VEC3","name":"accessorNormals"},{"bufferView":3,"byteOffset":712760,"componentType":5126,"count":320,"type":"VEC2","name":"accessorUVs"}],"bufferViews":[{"buffer":0,"byteLength":992652,"name":"bufferViewScalar"},{"buffer":0,"byteOffset":992652,"byteLength":2145960,"byteStride":12,"name":"bufferViewFloatVec3"},{"buffer":0,"byteOffset":3138612,"byteLength":2013024,"byteStride":16,"name":"bufferViewFloatVec4"},{"buffer":0,"byteOffset":5151636,"byteLength":715320,"byteStride":8,"name":"bufferViewFloatVec2"}],"buffers":[{"uri":"theo-left.bin","byteLength":5866956}],"materials":[{"pbrMetallicRoughness":{"baseColorFactor":[0.733813,0.654676259,0.5,1.0],"metallicFactor":0.0,"roughnessFactor":0.255953282},"doubleSided":true,"name":"CUDHION","extras":{"babylonSeparateCullingPass":false}},{"pbrMetallicRoughness":{"baseColorFactor":[0.0219607856,0.0219607856,0.0219607856,1.0],"metallicFactor":0.0,"roughnessFactor":0.459999979},"doubleSided":true,"name":"Bottom","extras":{"babylonSeparateCullingPass":false}},{"pbrMetallicRoughness":{"baseColorFactor":[0.5,0.5,0.5,1.0],"metallicFactor":0.0,"roughnessFactor":0.0},"doubleSided":true,"name":"Material #46","extras":{"babylonSeparateCullingPass":false}},{"pbrMetallicRoughness":{"baseColorFactor":[0.7,0.141007185,0.141007185,1.0],"metallicFactor":0.0,"roughnessFactor":0.599999964},"doubleSided":true,"name":"Wall Paint","extras":{"babylonSeparateCullingPass":false}},{"pbrMetallicRoughness":{"baseColorFactor":[0.5,0.5,0.5,1.0],"metallicFactor":0.0,"roughnessFactor":0.0},"doubleSided":true,"name":"Material #45","extras":{"babylonSeparateCullingPass":false}}]}