{"asset":{"version":"2.0","generator":"babylon.js glTF exporter for 3dsmax 2022 v20230608.5"},"scene":0,"scenes":[{"nodes":[0,1]}],"nodes":[{"mesh":0,"name":"Object041"},{"mesh":1,"name":"Box044"}],"meshes":[{"primitives":[{"attributes":{"POSITION":1,"TANGENT":2,"NORMAL":3,"TEXCOORD_0":4},"indices":0,"material":0}],"name":"Object041"},{"primitives":[{"attributes":{"POSITION":6,"TANGENT":7,"NORMAL":8,"TEXCOORD_0":9},"indices":5,"material":1}],"name":"Box044"}],"accessors":[{"bufferView":0,"componentType":5123,"count":186900,"type":"SCALAR","name":"accessorIndices"},{"bufferView":1,"componentType":5126,"count":32878,"max":[0.125114709,0.07574806,0.03691176],"min":[-0.125114724,0.0180729,-0.0485266224],"type":"VEC3","name":"accessorPositions"},{"bufferView":2,"componentType":5126,"count":32878,"type":"VEC4","name":"accessorTangents"},{"bufferView":1,"byteOffset":394536,"componentType":5126,"count":32878,"type":"VEC3","name":"accessorNormals"},{"bufferView":3,"componentType":5126,"count":32878,"type":"VEC2","name":"accessorUVs"},{"bufferView":0,"byteOffset":373800,"componentType":5123,"count":4272,"type":"SCALAR","name":"accessorIndices"},{"bufferView":1,"byteOffset":789072,"componentType":5126,"count":962,"max":[0.120944887,0.0209082253,0.0334393233],"min":[-0.1211842,0.00012662301,-0.0448925421],"type":"VEC3","name":"accessorPositions"},{"bufferView":2,"byteOffset":526048,"componentType":5126,"count":962,"type":"VEC4","name":"accessorTangents"},{"bufferView":1,"byteOffset":800616,"componentType":5126,"count":962,"type":"VEC3","name":"accessorNormals"},{"bufferView":3,"byteOffset":263024,"componentType":5126,"count":962,"type":"VEC2","name":"accessorUVs"}],"bufferViews":[{"buffer":0,"byteLength":382344,"name":"bufferViewScalar"},{"buffer":0,"byteOffset":382344,"byteLength":812160,"byteStride":12,"name":"bufferViewFloatVec3"},{"buffer":0,"byteOffset":1194504,"byteLength":541440,"byteStride":16,"name":"bufferViewFloatVec4"},{"buffer":0,"byteOffset":1735944,"byteLength":270720,"byteStride":8,"name":"bufferViewFloatVec2"}],"buffers":[{"uri":"`theo-3-seater.bin","byteLength":2006664}],"materials":[{"pbrMetallicRoughness":{"baseColorFactor":[0.5,0.5,0.5,1.0],"metallicFactor":0.55,"roughnessFactor":0.65},"doubleSided":true,"name":"CUSHION","extras":{"babylonSeparateCullingPass":false}},{"pbrMetallicRoughness":{"baseColorFactor":[0.058824,0.058824,0.058824,1.0],"metallicFactor":0.0,"roughnessFactor":0.0},"doubleSided":true,"name":"LEGS","extras":{"babylonSeparateCullingPass":false}}]}