{"asset":{"version":"2.0","generator":"babylon.js glTF exporter for 3dsmax 2022 v20230608.5"},"scene":0,"scenes":[{"nodes":[0,1,2]}],"nodes":[{"mesh":0,"name":"Object007"},{"mesh":1,"name":"Box011"},{"mesh":2,"name":"Box046"}],"meshes":[{"primitives":[{"attributes":{"POSITION":1,"TANGENT":2,"NORMAL":3,"TEXCOORD_0":4},"indices":0,"material":0}],"name":"Object007"},{"primitives":[{"attributes":{"POSITION":6,"TANGENT":7,"NORMAL":8,"TEXCOORD_0":9},"indices":5,"material":1}],"name":"Box011"},{"primitives":[{"attributes":{"POSITION":11,"TANGENT":12,"NORMAL":13,"TEXCOORD_0":14},"indices":10,"material":2}],"name":"Box046"}],"accessors":[{"bufferView":0,"componentType":5123,"count":239802,"type":"SCALAR","name":"accessorIndices"},{"bufferView":1,"componentType":5126,"count":49712,"max":[1.75174665,0.935686231,0.857244],"min":[-1.56285012,0.12552923,-0.857244],"type":"VEC3","name":"accessorPositions"},{"bufferView":2,"componentType":5126,"count":49712,"type":"VEC4","name":"accessorTangents"},{"bufferView":1,"byteOffset":596544,"componentType":5126,"count":49712,"type":"VEC3","name":"accessorNormals"},{"bufferView":3,"componentType":5126,"count":49712,"type":"VEC2","name":"accessorUVs"},{"bufferView":0,"byteOffset":479604,"componentType":5123,"count":8880,"type":"SCALAR","name":"accessorIndices"},{"bufferView":1,"byteOffset":1193088,"componentType":5126,"count":2208,"max":[1.68525362,0.158351317,0.8090163],"min":[-1.480109,-0.000118195007,-0.774021745],"type":"VEC3","name":"accessorPositions"},{"bufferView":2,"byteOffset":795392,"componentType":5126,"count":2208,"type":"VEC4","name":"accessorTangents"},{"bufferView":1,"byteOffset":1219584,"componentType":5126,"count":2208,"type":"VEC3","name":"accessorNormals"},{"bufferView":3,"byteOffset":397696,"componentType":5126,"count":2208,"type":"VEC2","name":"accessorUVs"},{"bufferView":0,"byteOffset":497364,"componentType":5123,"count":72,"type":"SCALAR","name":"accessorIndices"},{"bufferView":1,"byteOffset":1246080,"componentType":5126,"count":48,"max":[1.67760265,0.137051985,0.7935266],"min":[-1.48523712,0.128045753,-0.7705102],"type":"VEC3","name":"accessorPositions"},{"bufferView":2,"byteOffset":830720,"componentType":5126,"count":48,"type":"VEC4","name":"accessorTangents"},{"bufferView":1,"byteOffset":1246656,"componentType":5126,"count":48,"type":"VEC3","name":"accessorNormals"},{"bufferView":3,"byteOffset":415360,"componentType":5126,"count":48,"type":"VEC2","name":"accessorUVs"}],"bufferViews":[{"buffer":0,"byteLength":497508,"name":"bufferViewScalar"},{"buffer":0,"byteOffset":497508,"byteLength":1247232,"byteStride":12,"name":"bufferViewFloatVec3"},{"buffer":0,"byteOffset":1744740,"byteLength":831488,"byteStride":16,"name":"bufferViewFloatVec4"},{"buffer":0,"byteOffset":2576228,"byteLength":415744,"byteStride":8,"name":"bufferViewFloatVec2"}],"buffers":[{"uri":"tyler-l-shape-left.bin","byteLength":2991972}],"materials":[{"pbrMetallicRoughness":{"baseColorFactor":[0.5,0.5,0.5,1.0],"metallicFactor":0.0,"roughnessFactor":0.0},"doubleSided":true,"name":"Material__6","extras":{"babylonSeparateCullingPass":false}},{"pbrMetallicRoughness":{"baseColorFactor":[0.047059,0.047059,0.047059,1.0],"metallicFactor":0.0,"roughnessFactor":0.68},"doubleSided":true,"name":"LEGS","extras":{"babylonSeparateCullingPass":false}},{"pbrMetallicRoughness":{"baseColorFactor":[0.047059,0.047059,0.047059,1.0],"metallicFactor":0.0,"roughnessFactor":0.68},"doubleSided":true,"name":"BOTTOM","extras":{"babylonSeparateCullingPass":false}}]}