{"asset":{"version":"2.0","generator":"babylon.js glTF exporter for 3dsmax 2022 v20230608.5"},"scene":0,"scenes":[{"nodes":[0,1,2]}],"nodes":[{"mesh":0,"name":"Object044"},{"mesh":1,"name":"Box015"},{"mesh":2,"name":"Object013"}],"meshes":[{"primitives":[{"attributes":{"POSITION":1,"NORMAL":2,"TEXCOORD_0":3},"indices":0,"material":0}],"name":"Object044"},{"primitives":[{"attributes":{"POSITION":5,"NORMAL":6,"TEXCOORD_0":7},"indices":4,"material":1}],"name":"Box015"},{"primitives":[{"attributes":{"POSITION":9,"NORMAL":10,"TEXCOORD_0":11},"indices":8,"material":2}],"name":"Object013"}],"accessors":[{"bufferView":0,"componentType":5123,"count":5184,"type":"SCALAR","name":"accessorIndices"},{"bufferView":1,"componentType":5126,"count":1086,"max":[1.5710094,0.1363192,1.49576592],"min":[-1.47039092,0.129516855,-1.28192806],"type":"VEC3","name":"accessorPositions"},{"bufferView":1,"byteOffset":13032,"componentType":5126,"count":1086,"type":"VEC3","name":"accessorNormals"},{"bufferView":2,"componentType":5126,"count":1086,"type":"VEC2","name":"accessorUVs"},{"bufferView":0,"byteOffset":10368,"componentType":5123,"count":13320,"type":"SCALAR","name":"accessorIndices"},{"bufferView":1,"byteOffset":26064,"componentType":5126,"count":3312,"max":[1.56225348,0.160726368,1.46082413],"min":[-1.6159476,-8.42700047E-06,-1.42659581],"type":"VEC3","name":"accessorPositions"},{"bufferView":1,"byteOffset":65808,"componentType":5126,"count":3312,"type":"VEC3","name":"accessorNormals"},{"bufferView":2,"byteOffset":8688,"componentType":5126,"count":3312,"type":"VEC2","name":"accessorUVs"},{"bufferView":0,"byteOffset":37008,"componentType":5125,"count":384795,"type":"SCALAR","name":"accessorIndices"},{"bufferView":1,"byteOffset":105552,"componentType":5126,"count":83510,"max":[1.6114856,1.00083435,1.51289392],"min":[-1.70533419,0.13324748,-1.51289392],"type":"VEC3","name":"accessorPositions"},{"bufferView":1,"byteOffset":1107672,"componentType":5126,"count":83510,"type":"VEC3","name":"accessorNormals"},{"bufferView":2,"byteOffset":35184,"componentType":5126,"count":83510,"type":"VEC2","name":"accessorUVs"}],"bufferViews":[{"buffer":0,"byteLength":1576188,"name":"bufferViewScalar"},{"buffer":0,"byteOffset":1576188,"byteLength":2109792,"byteStride":12,"name":"bufferViewFloatVec3"},{"buffer":0,"byteOffset":3685980,"byteLength":703264,"byteStride":8,"name":"bufferViewFloatVec2"}],"buffers":[{"uri":"tyler-corner-sectional-left.bin","byteLength":4389244}],"materials":[{"pbrMetallicRoughness":{"baseColorFactor":[0.047059,0.047059,0.047059,1.0],"metallicFactor":0.0,"roughnessFactor":0.68},"doubleSided":true,"name":"BOTTOM","extras":{"babylonSeparateCullingPass":false}},{"pbrMetallicRoughness":{"baseColorFactor":[0.047059,0.047059,0.047059,1.0],"metallicFactor":0.0,"roughnessFactor":0.68},"doubleSided":true,"name":"LEGS","extras":{"babylonSeparateCullingPass":false}},{"pbrMetallicRoughness":{"baseColorFactor":[0.0,0.0,0.0,1.0],"metallicFactor":0.0,"roughnessFactor":0.68},"doubleSided":true,"name":"wire_000000000","extras":{"babylonSeparateCullingPass":false}}]}