{"asset":{"version":"2.0","generator":"babylon.js glTF exporter for 3dsmax 2022 v20230608.5"},"scene":0,"scenes":[{"nodes":[0]}],"nodes":[{"mesh":0,"name":"Object001"}],"meshes":[{"primitives":[{"attributes":{"POSITION":1,"NORMAL":2,"TEXCOORD_0":3},"indices":0,"material":0}],"name":"Object001"}],"accessors":[{"bufferView":0,"componentType":5123,"count":189636,"type":"SCALAR","name":"accessorIndices"},{"bufferView":1,"componentType":5126,"count":36965,"max":[1.36612737,0.8951735,0.47040382],"min":[-1.3112992,-0.009254824,-0.569294333],"type":"VEC3","name":"accessorPositions"},{"bufferView":1,"byteOffset":443580,"componentType":5126,"count":36965,"type":"VEC3","name":"accessorNormals"},{"bufferView":2,"componentType":5126,"count":36965,"type":"VEC2","name":"accessorUVs"}],"bufferViews":[{"buffer":0,"byteLength":379272,"name":"bufferViewScalar"},{"buffer":0,"byteOffset":379272,"byteLength":887160,"byteStride":12,"name":"bufferViewFloatVec3"},{"buffer":0,"byteOffset":1266432,"byteLength":295720,"byteStride":8,"name":"bufferViewFloatVec2"}],"buffers":[{"uri":"watt.bin","byteLength":1562152}],"materials":[{"pbrMetallicRoughness":{"baseColorFactor":[0.588235,0.588235,0.588235,1.0],"metallicFactor":0.0,"roughnessFactor":0.9},"doubleSided":true,"name":"BODY","extras":{"babylonSeparateCullingPass":false}}]}